<svg xmlns="http://www.w3.org/2000/svg" width="24.481" height="15.232" viewBox="0 0 24.481 15.232"><defs><style>.a{fill:#fff;}</style></defs><g transform="translate(-170.687 -5843.2)"><path class="a" d="M22.108,83.4H15.974V81.879h6.135V83.4ZM11.891,89.651a4.028,4.028,0,0,1,.594,2.231,4.444,4.444,0,0,1-.677,2.431,4.214,4.214,0,0,1-1.078,1.2,4.164,4.164,0,0,1-1.719.765,10.628,10.628,0,0,1-2.151.206H0V81.247H7.356A4.676,4.676,0,0,1,11.3,82.869,3.876,3.876,0,0,1,12,85.2a3.391,3.391,0,0,1-.7,2.243,3.591,3.591,0,0,1-1.16.867A3.382,3.382,0,0,1,11.891,89.651Zm-8.378-2.4H6.736a3.054,3.054,0,0,0,1.61-.378,1.44,1.44,0,0,0,.618-1.339,1.363,1.363,0,0,0-.818-1.405,5.754,5.754,0,0,0-1.8-.238H3.513Zm5.762,4.412a1.634,1.634,0,0,0-.969-1.632,3.817,3.817,0,0,0-1.523-.258H3.513v4.059H6.732a3.577,3.577,0,0,0,1.543-.267A1.92,1.92,0,0,0,9.275,91.664Zm15.109-2.478a14.329,14.329,0,0,1,.094,2.167H16.534a2.608,2.608,0,0,0,1.14,2.3,2.872,2.872,0,0,0,1.573.41,2.216,2.216,0,0,0,2.169-1.249h2.912a3.547,3.547,0,0,1-1.057,1.972,5.3,5.3,0,0,1-4.1,1.593,5.955,5.955,0,0,1-3.844-1.343,5.3,5.3,0,0,1-1.664-4.371,5.908,5.908,0,0,1,1.5-4.35,5.262,5.262,0,0,1,3.9-1.513,6.221,6.221,0,0,1,2.566.51,4.419,4.419,0,0,1,1.883,1.616A5.386,5.386,0,0,1,24.384,89.186Zm-2.866.284a2.383,2.383,0,0,0-.762-1.724,2.487,2.487,0,0,0-1.691-.591,2.262,2.262,0,0,0-1.7.626,2.941,2.941,0,0,0-.761,1.689h4.916Z" transform="translate(170.687 5761.953)"/></g></svg>