<svg xmlns="http://www.w3.org/2000/svg" width="16.93" height="16.896" viewBox="0 0 16.93 16.896"><defs><style>.a{fill:#fff;}</style></defs><g transform="translate(-226.707 -5798.92)"><path class="a" d="M231.816,347.815c1.295-.184,2.429-1.535,3.144-3.531a15.363,15.363,0,0,0-3.144-.37Zm0,0" transform="translate(3.658 5468)"/><path class="a" d="M279.761,360.678c.077-.022.153-.044.228-.069s.127-.043.19-.065.149-.052.223-.08.125-.049.188-.075l.215-.091c.062-.027.124-.056.186-.085s.139-.066.208-.1l.182-.095q.1-.055.2-.112c.061-.034.119-.069.178-.1l.2-.121c.058-.037.116-.074.173-.113s.127-.088.189-.133l.167-.121.183-.143c.054-.043.108-.086.161-.13s.118-.1.177-.154.1-.091.153-.138.114-.11.17-.165.1-.1.146-.145l.026-.029a10.17,10.17,0,0,0-2.073-.8,7.508,7.508,0,0,1-1.934,3.14l.074-.018C279.634,360.717,279.7,360.7,279.761,360.678Zm0,0" transform="translate(-42.219 5454.82)"/><path class="a" d="M339.8,231.684H336.17a15.693,15.693,0,0,1-.611,4.186,10.525,10.525,0,0,1,2.3.914A8.453,8.453,0,0,0,339.8,231.684Zm0,0" transform="translate(-96.161 5575.986)"/><path class="a" d="M231.816,112.979h3.929a15.135,15.135,0,0,0-.6-4.037,15.936,15.936,0,0,1-3.334.4Zm0,0" transform="translate(3.658 5694.086)"/><path class="a" d="M231.816.316v3.9a15.377,15.377,0,0,0,3.144-.37c-.714-2-1.849-3.347-3.144-3.531Zm0,0" transform="translate(3.658 5798.604)"/><path class="a" d="M231.816,235.323a15.948,15.948,0,0,1,3.334.4,15.138,15.138,0,0,0,.6-4.037h-3.929Zm0,0" transform="translate(3.659 5575.987)"/><path class="a" d="M337.854,80.844a10.521,10.521,0,0,1-2.3.914,15.69,15.69,0,0,1,.611,4.186H339.8a8.456,8.456,0,0,0-1.942-5.1Zm0,0" transform="translate(-96.16 5721.122)"/><path class="a" d="M283.466,9.138l-.026-.028c-.048-.049-.1-.1-.146-.145s-.112-.111-.17-.165-.1-.091-.153-.137-.117-.1-.178-.155-.106-.086-.159-.129-.123-.1-.185-.145-.11-.081-.166-.121-.127-.091-.191-.134-.114-.075-.172-.112-.131-.083-.2-.123l-.176-.1q-.1-.058-.2-.113l-.182-.094c-.07-.035-.14-.069-.212-.1s-.122-.057-.184-.084-.144-.06-.216-.091-.124-.051-.187-.074-.148-.054-.222-.08-.126-.044-.19-.065-.151-.047-.229-.069-.126-.037-.19-.054l-.074-.018a7.509,7.509,0,0,1,1.934,3.14,10.155,10.155,0,0,0,2.076-.8Zm0,0" transform="translate(-42.181 5792.368)"/><path class="a" d="M0,85.944H3.628a15.7,15.7,0,0,1,.611-4.186,10.509,10.509,0,0,1-2.3-.914A8.454,8.454,0,0,0,0,85.943Zm0,0" transform="translate(226.707 5721.122)"/><path class="a" d="M135.839,347.815v-3.9a15.378,15.378,0,0,0-3.144.37c.714,2,1.849,3.347,3.144,3.531Zm0,0" transform="translate(99.031 5468.001)"/><path class="a" d="M115.85,231.684h-3.929a15.131,15.131,0,0,0,.6,4.037,15.926,15.926,0,0,1,3.334-.4Zm0,0" transform="translate(119.019 5575.986)"/><path class="a" d="M135.839.316c-1.295.184-2.43,1.535-3.144,3.531a15.357,15.357,0,0,0,3.144.37Zm0,0" transform="translate(99.031 5798.604)"/><path class="a" d="M115.851,109.339a15.937,15.937,0,0,1-3.334-.4,15.13,15.13,0,0,0-.6,4.037h3.929Zm0,0" transform="translate(119.018 5694.087)"/><path class="a" d="M66.2,6.789l-.074.018c-.064.017-.127.036-.191.055s-.151.044-.228.069-.128.043-.191.065-.148.052-.221.08L65.1,7.15l-.215.091c-.062.027-.124.056-.186.085s-.139.066-.208.1l-.182.095q-.1.055-.2.112t-.178.1c-.066.04-.131.081-.2.121s-.116.075-.173.113-.127.088-.189.133l-.167.121c-.062.047-.121.095-.183.143s-.108.086-.161.13-.118.1-.176.153-.1.091-.154.139-.113.109-.17.165-.1.1-.146.145l-.026.029a10.158,10.158,0,0,0,2.073.8A7.505,7.505,0,0,1,66.2,6.789Zm0,0" transform="translate(166.868 5792.375)"/><path class="a" d="M62.4,358.533c.056.055.112.111.17.165s.1.091.153.137.117.1.178.155.106.086.159.129.121.1.185.145l.165.121c.063.045.127.091.191.134s.114.075.172.112.131.083.2.123l.176.1q.1.058.2.113l.182.094c.07.035.14.069.212.1l.184.084c.072.032.144.06.216.091s.124.051.187.074.148.055.222.08.126.044.19.065.151.047.229.069.126.037.19.054l.074.018a7.51,7.51,0,0,1-1.934-3.14,10.16,10.16,0,0,0-2.073.8l.026.028C62.3,358.438,62.351,358.485,62.4,358.533Zm0,0" transform="translate(166.83 5454.869)"/><path class="a" d="M1.942,236.783a10.527,10.527,0,0,1,2.3-.914,15.7,15.7,0,0,1-.611-4.186H0A8.455,8.455,0,0,0,1.942,236.783Zm0,0" transform="translate(226.707 5575.987)"/></g></svg>