<svg xmlns="http://www.w3.org/2000/svg" width="18" height="17" viewBox="0 0 18 17"><defs><style>.a{fill:#fff;}</style></defs><g transform="translate(-250 -5684)"><path class="a" d="M18,19.981v6.577H14.142V20.421c0-1.542-.558-2.594-1.954-2.594a2.109,2.109,0,0,0-1.98,1.395,2.581,2.581,0,0,0-.128.93v6.406H6.221s.052-10.394,0-11.471H10.08v1.626c-.008.012-.018.025-.025.037h.025v-.037a3.839,3.839,0,0,1,3.478-1.9C16.1,14.818,18,16.457,18,19.981ZM2.184,9.558a1.99,1.99,0,1,0-.051,3.964h.026a1.99,1.99,0,1,0,.025-3.964Zm-1.955,17H4.087V15.087H.229Z" transform="translate(250 5674.442)"/></g></svg>