<svg xmlns="http://www.w3.org/2000/svg" width="19.351" height="14.13" viewBox="0 0 19.351 14.13"><defs><style>.a{fill:#fff;}</style></defs><path class="a" d="M33.295,46.882a.661.661,0,0,0-.244-.581l-1.807-2V44h5.61l4.336,8.747L45,44h5.348v.3l-1.545,1.362a.4.4,0,0,0-.172.4V56.069a.4.4,0,0,0,.172.4l1.509,1.362v.3H42.726v-.3l1.563-1.4c.154-.141.154-.183.154-.4V47.946L40.1,58.1H39.51L34.451,47.946v6.8a.892.892,0,0,0,.28.781L36.764,57.8v.3H31v-.3l2.033-2.268a.859.859,0,0,0,.262-.781Z" transform="translate(-31 -44)"/></svg>