<svg xmlns="http://www.w3.org/2000/svg" width="20.489" height="16.271" viewBox="0 0 20.489 16.271"><defs><style>.a{fill:#fff;}</style></defs><g transform="translate(0 0)"><path class="a" d="M20.49,59.366a8.544,8.544,0,0,1-2.413.647,4.144,4.144,0,0,0,1.848-2.272,8.592,8.592,0,0,1-2.671,1,4.236,4.236,0,0,0-3.068-1.3,4.157,4.157,0,0,0-4.2,4.108,4.033,4.033,0,0,0,.109.936,12.026,12.026,0,0,1-8.663-4.293A4.008,4.008,0,0,0,.86,60.257a4.084,4.084,0,0,0,1.869,3.42,4.277,4.277,0,0,1-1.9-.516v.051A4.138,4.138,0,0,0,4.2,67.242a4.349,4.349,0,0,1-1.107.144,4.123,4.123,0,0,1-.791-.076,4.2,4.2,0,0,0,3.926,2.854A8.557,8.557,0,0,1,1,71.919a9.136,9.136,0,0,1-1-.056,12.079,12.079,0,0,0,6.443,1.849A11.736,11.736,0,0,0,18.4,62.021l-.014-.532A8.293,8.293,0,0,0,20.49,59.366Z" transform="translate(-0.001 -57.441)"/></g></svg>